<svg width="64" height="64" viewBox="0 0 64 64" fill="none" xmlns="http://www.w3.org/2000/svg">
<path d="M55.9799 8.17H54.0099V6.03C54.0099 4.95 53.5999 3.94 52.8299 3.17C52.0499 2.42 51.0399 2 49.9799 2C47.7599 2 45.9499 3.81 45.9499 6.03V8.17H18.0499V6.03C18.0499 4.95 17.6399 3.94 16.8799 3.18C16.1199 2.42 15.0999 2 14.0199 2C11.7999 2 9.98993 3.81 9.98993 6.03V8.17H8.03993C5.07993 8.17 2.67993 10.56 2.67993 13.51V56.65C2.67993 59.6 5.07993 62 8.03993 62H55.9799C58.9199 62 61.3199 59.6 61.3199 56.65V13.51C61.3199 10.56 58.9199 8.17 55.9799 8.17ZM23.9699 14.9H40.0299C40.5799 14.9 41.0299 15.35 41.0299 15.9C41.0299 16.46 40.5799 16.9 40.0299 16.9H23.9699C23.4199 16.9 22.9699 16.46 22.9699 15.9C22.9699 15.35 23.4199 14.9 23.9699 14.9ZM47.9499 6.03C47.9499 4.89 48.8399 4 49.9799 4C50.5199 4 51.0299 4.21 51.4199 4.59C51.7999 4.97 52.0099 5.49 52.0099 6.03V12.3C52.0099 13.42 51.0999 14.33 49.9799 14.33C48.8399 14.33 47.9499 13.44 47.9499 12.3V6.03ZM11.9899 6.03C11.9899 4.91 12.8999 4 14.0199 4C14.5699 4 15.0799 4.21 15.4599 4.59C15.8399 4.97 16.0499 5.49 16.0499 6.03V12.3C16.0499 13.44 15.1599 14.33 14.0199 14.33C12.8999 14.33 11.9899 13.42 11.9899 12.3V6.03ZM59.3199 56.65C59.3199 58.5 57.8199 60 55.9799 60H8.03993C6.18993 60 4.67993 58.5 4.67993 56.65V22.67H59.3199V56.65Z" fill="white"/>
<path d="M32 57.55C40.39 57.55 47.32 50.99 47.76 42.61C47.78 42.16 47.51 41.76 47.08 41.61C46.66 41.47 46.19 41.62 45.94 41.99C44.03 44.78 40.88 46.44 37.51 46.44C31.89 46.44 27.32 41.87 27.32 36.25C27.32 32.88 28.98 29.73 31.77 27.83C32.14 27.57 32.29 27.1 32.15 26.68C32.01 26.25 31.59 25.97 31.15 26C22.77 26.45 16.21 33.37 16.21 41.76C16.21 50.47 23.29 57.55 32 57.55Z" fill="white"/>
</svg>
