<svg width="3200" height="432" viewBox="0 0 3200 432" fill="none" xmlns="http://www.w3.org/2000/svg">
<path d="M414.342 3.80223L434.158 7.05922C435.413 7.26522 436.716 8.68423 438.242 8.05123C438.533 7.93023 438.932 8.16422 439.242 8.09322C440.066 8.82822 441.166 9.00623 442.242 9.04323L443.242 9.07723C444.077 9.79423 445.159 10.0062 446.242 10.0432L447.242 10.0772C447.787 11.3142 449.232 10.7482 450.242 10.9852L457.258 12.6362C461.222 13.5692 465.121 15.4922 469.158 16.0822C469.064 17.2032 470.729 16.5482 471.242 17.0352C472.243 17.9832 474.161 17.3802 475.158 18.0822C477.561 19.7742 480.66 19.7892 483.242 21.0532C484.906 21.8682 487.676 22.2342 489.195 22.8332C491.967 25.8432 499.131 25.8852 502.14 28.0432C507.635 31.9832 514.259 33.6762 520.137 36.7942C529.294 41.6502 537.686 48.2232 547.192 52.3742C548.324 54.0462 550.4 55.1402 552.326 56.0012C553.861 56.6872 555.193 59.2992 557.25 59.1582C560.805 63.6492 566.871 66.2742 571.25 69.8852C586.024 82.0702 599.613 95.2872 612.759 109.161C614.346 110.836 615.76 112.836 617.25 114.904L623.918 124.157C619.759 126.212 618.357 122.406 615.717 120.345C574.788 88.3922 525.319 71.1282 473.232 68.9122C440.09 67.5022 408.414 72.2912 376.648 81.2352C317.75 97.8162 273.143 126.957 226.374 166.648C217.804 173.921 202.033 187.439 194.298 194.83C193.1 195.975 190.752 197.972 189.29 199.027L149.905 227.453L144.291 230.875C126.102 241.962 107.768 251.562 87.555 258.081C85.532 258.733 85.053 259.669 82.542 259.728C78.152 259.832 73.244 261.969 68.802 262.552L62.406 263.391C58.703 263.877 56.631 264.29 53.13 264.194C47.505 264.04 22.734 263.137 19.262 261.098C15.228 258.729 10.166 258.812 6.24501 256.839C4.30201 255.862 1.839 255.945 0 253.749C33.263 247.895 65.08 217.022 81.311 188.865L103.28 150.756C115.996 128.697 130.317 108.201 148.093 89.7072C178.034 58.5542 214.572 35.5142 254.73 19.7882C273.832 12.3082 292.756 6.46922 312.3 3.99422L336.248 0.963246C337.175 0.846246 338.302 0.793224 339.251 0.740224C364.343 -0.672776 389.55 -0.274779 414.343 3.80022L414.342 3.80223ZM308.029 25.8232C307.002 26.5762 304.191 28.0722 304.305 29.7712C304.77 36.6942 327.463 36.1572 337.016 27.1412C338.219 26.0062 340.021 25.4492 339.935 23.3592C339.577 14.6482 310.487 18.8982 308.029 25.8232ZM363.759 20.8452C362.584 18.6132 357.249 18.7252 356.883 20.8752C356.498 23.1382 359.494 23.9082 360.78 23.9042C362.011 23.9002 364.975 23.1552 363.759 20.8452ZM303.38 23.7872C300.383 23.2812 296.903 24.0752 294.429 27.0922C297.961 28.5112 301.153 26.7672 303.38 23.7872ZM402.368 30.8392C403.459 35.6412 408.791 37.9402 414.36 36.8132C415.627 36.5572 417.047 36.4802 417.59 35.6532C418.362 34.4782 418.907 32.4152 418.034 30.9452C415.187 26.1502 408.726 24.1422 403.64 26.1622C401.655 26.9502 401.294 29.0922 402.367 30.8402L402.368 30.8392ZM275.374 34.9872C273.882 32.9432 271.374 34.1442 270.866 31.7022C276.134 31.7372 280.229 31.8142 283.24 27.6172C278.317 27.1222 274.674 30.5702 270.062 31.9002C262.505 34.0792 254.591 36.7382 250.923 44.2362C250.25 45.6112 249.977 47.6652 251.073 48.4432C253.18 49.9402 272.388 38.4732 275.374 34.9872ZM366.381 39.8582C367.381 45.9952 375.431 48.6882 381.473 45.7112C383.022 44.9482 385.012 44.3122 385.504 42.7892C386.15 40.7872 385.358 38.8332 383.723 37.3512C379.699 33.7052 373.422 32.7392 368.7 35.4612C367.05 36.4122 365.89 38.0752 366.382 39.8592L366.381 39.8582ZM247.046 41.0532C241.376 42.7722 237.843 45.0122 233.601 48.0162C238.73 49.2992 245.32 49.3232 247.046 41.0532ZM259.405 68.6692C263.301 77.6692 284.827 75.7862 292.198 68.9242C296.806 67.7222 300.883 63.6052 302.882 58.8142C304.876 54.0352 302.112 48.6262 297.087 47.0952C284.423 43.2352 269.97 46.7942 261.384 56.7862C258.396 60.2632 257.026 64.7562 259.405 68.6692ZM323.439 61.7712C323.471 63.9902 324.519 66.0552 326.883 67.2612C331.452 69.5922 337.439 70.8492 341.5 66.9812C342.679 66.2582 345.055 66.5372 345.543 64.7142C345.998 63.0152 345.873 61.2252 344.383 59.5502C339.907 54.5172 332.009 53.5902 325.994 56.6442C324.067 57.6232 322.974 59.8312 323.439 61.7712ZM233.2 134.247C227.721 133.202 223.533 135.146 220.099 131.228C229.263 130.88 237.323 134.174 244.532 124.678C237.504 126.05 231.783 127.501 225.253 126.247C218.333 124.919 214.047 119.826 213.442 112.58C212.415 100.271 222.873 88.3312 231.374 80.0802C235.845 75.7402 247.499 63.9532 242.82 57.8952C238.79 52.6782 226.665 56.9922 220.888 59.5802C219.565 60.1732 217.742 59.0642 216.673 59.6372C208.337 64.1072 201.401 69.9712 193.755 75.5422C165.317 96.2652 146.093 119.162 126.718 148.351C102.828 183.874 85.034 219.158 47.939 244.551C93.958 235.923 147.039 202.008 184.094 172.866L233.2 134.246V134.247ZM224.384 106.784C223.598 111.963 227.457 117.603 233.566 117.592C241.928 117.578 250.576 114.146 256.36 107.584C260.809 104.518 264.45 99.8022 266.481 94.4042C268.633 88.6852 265.346 82.9442 259.448 81.8292C244.677 79.0372 225.732 91.7462 224.383 106.783L224.384 106.784ZM300.936 88.2412C294.076 83.4392 285.545 89.2252 284.459 96.3292C290.829 97.6112 297.72 94.6642 300.936 88.2412ZM276.097 105.168C272.106 104.013 269.333 107.224 268.081 110.969C271.67 110.234 274.302 108.887 276.097 105.168Z" fill="#FAFBFC"/>
<path d="M633.305 233.983C631.072 237.687 621.686 265.99 620.266 268.77L608.521 291.757C607.735 293.295 605.736 295.006 605.847 296.967C601.402 300.863 599.294 307.412 595.939 312.138C594.258 314.505 592.055 317.538 590.233 319.776C575.236 338.195 558.482 354.552 540.325 369.839C539.32 370.685 537.64 371.772 536.49 372.519C527.176 378.57 518.533 385.665 508.207 390.962L485.022 402.856C472.528 409.266 459.358 415.016 445.273 418.218L437.521 419.98C433.502 420.894 429.224 420.999 425.299 423.274C424.003 424.025 421.043 422.802 419.236 423.731C415.467 425.669 411.793 426.512 408.288 426.123C404.296 425.68 399.981 427.231 396.159 427.798C393.651 428.17 391.434 428.059 388.733 429.787C387.246 430.528 384.916 428.57 383.393 428.935C382.399 429.173 380.725 428.349 380.243 429.575L347.246 430.092C346.557 430.103 345.857 430.023 345.17 429.971C337.546 429.394 329.886 428.525 322.243 428.606C321.597 428.571 320.857 427.886 320.112 427.934C319.624 427.966 318.751 427.981 318.327 427.808C316.002 426.129 312.972 427.243 310.243 426.808C309.915 426.756 309.574 426.8 309.243 426.766C307.986 425.178 305.755 425.942 304.243 425.868L297.554 425.541C293.949 425.365 290.877 422.846 287.327 422.795C286.46 422.782 285.367 421.336 284.243 421.931C283.963 422.079 283.554 421.852 283.243 421.931C282.451 421.125 281.357 420.856 280.243 420.816L279.243 420.779C278.639 419.737 277.306 419.855 276.243 419.816L275.243 419.779C274.874 419.147 273.977 418.741 273.243 418.884C270.336 419.45 267.802 418.114 265.136 417.212L254.536 413.624C252.531 412.945 251.457 412.712 249.45 411.898L220.675 400.223C218.353 399.281 198.335 388.288 194.679 386.298C179.632 378.109 175.231 373.743 162.024 364.057L156.4 359.932L150.078 354.188C146.573 351.004 142.959 348.563 139.726 345.315L133.345 338.903C130.859 336.405 128.448 333.714 126.115 331.122L117.611 321.672C104.27 306.848 94.418 290.328 83.99 272.784C88.451 271.908 92.202 270.51 96.151 269.94C99.557 269.448 104.818 267.911 107.369 265.961C108.93 264.768 113.153 261.623 114.881 263.536C134.352 296.19 160.001 324.117 191.322 345.855C196.777 349.641 201.38 353.689 207.08 355.945C223.377 367.504 242.236 376.227 261.083 382.966C261.142 383.948 262.562 383.735 263.243 384.024C264.45 384.536 265.859 384.97 267.159 385.055C267.168 386.031 268.593 385.751 269.243 386.021C270.456 386.525 271.85 386.967 273.159 387.045C273.18 387.975 274.58 387.82 275.243 388C275.887 388.175 276.582 388.123 277.243 388.176C278.84 389.737 281.258 389.419 283.243 390.058C286.81 391.205 290.405 392.371 294.13 392.877C295.224 393.949 296.773 393.994 298.243 394.048L299.243 394.085C300.079 395.391 301.902 394.88 303.243 395.061C303.572 395.105 303.911 395.086 304.243 395.111C304.759 396.382 306.318 395.754 307.364 395.93C309.599 396.306 311.828 396.783 314.104 396.712C314.394 396.703 314.91 396.67 315.146 396.804C316.937 398.038 319.131 398.048 321.243 398.024C321.904 398.017 322.577 398.238 323.243 398.192C323.995 399.797 326.153 398.394 327.377 398.932C329.495 399.863 332.225 398.509 334.243 399.194C336.037 399.803 337.482 399.879 339.385 399.932L349.243 400.202C355.876 400.384 362.62 400.892 369.243 400.194C372.815 399.818 376.52 400.454 380.093 399.798C381.408 399.556 383.413 400.684 384.243 399.207C385.904 399.564 389.132 399.535 390.251 398.183L393.243 398.052C412.645 397.201 432.243 391.59 450.175 384.141C450.026 384.203 475.497 375.923 472.322 373.787C475.737 376.199 478.703 370.488 480.233 369.95C484.639 370.944 487.921 366.526 491.847 364.722C494.231 363.626 508.859 354.564 510.212 353.008C510.77 352.366 511.921 351.558 512.296 350.869C516.145 349.5 520.448 346.849 522.041 343.021C524.518 343.046 526.725 341.555 527.464 339.176C531.329 337.371 534.559 334.049 537.351 330.84C540.958 328.493 544.468 325.469 546.634 321.732C549.38 320.664 550.672 317.75 552.741 315.438C554.719 313.227 557.308 311.943 558.12 309.27C558.471 308.113 560.234 307.364 560.414 306.026C563.595 304.955 577.843 285.674 577.222 282.052C577.917 281.772 578.501 281.58 579.109 281.099C580.063 280.344 580.694 279.443 580.524 278.136C591.353 263.059 597.948 244.877 603.411 227.097L606.409 217.339C614.836 223.422 623.285 226.84 632.803 229.12C633.036 231.104 632.902 232.604 633.306 233.985L633.305 233.983Z" fill="#FAFBFC"/>
<path d="M612.885 139.133C615.387 140.557 619.593 143.24 621.916 145.049C628.63 150.276 635.985 154.8 643.308 159.933C651.183 165.452 659.261 169.469 667.141 173.813C689.159 185.953 703.098 192.023 730.296 193.77L727.225 197.81C716.09 205.506 704.672 212.827 691.08 216.833L683.583 219.042C680.441 219.968 676.65 219.067 674.027 221.964C660.662 219.755 654.537 222.627 639.637 217.237C637.634 216.513 634.795 217.017 633.081 215.901C627.12 212.019 620.607 209.782 614.509 206.524C607.26 202.65 601.331 197.221 594.809 192.235L574.26 176.526C569.42 172.826 565.557 166.712 559.396 165.997C559.301 164.962 558.899 163.963 558.264 163.313C557.356 162.383 556.069 163.089 555.176 162.746C555.108 159.998 552.08 158.709 549.377 157.78C544.619 153.209 539.329 149.476 533.234 147.066C531.834 144.144 528.868 143.908 526.487 142.49L520.309 138.812C517.249 136.99 514.76 133.934 511.223 135.006C510.124 132.97 507.494 130.89 505.331 132.009C505.693 129.643 503.552 129.458 501.607 128.449C465.444 109.688 427.305 100.796 385.618 99.5703C420.082 91.1843 455.336 89.9742 490.271 94.8362C534.652 101.012 574.761 117.443 612.885 139.135V139.133Z" fill="#80FF84"/>
<path d="M668.158 317.829C666.049 321.116 667.325 324.619 663.912 327.978C656.826 304.907 657.84 301.173 633.872 294.125C650.006 287.782 656.256 286.958 661.14 268.85C662.143 265.133 663.126 262.226 664.414 258.494L669.87 276.043C673.757 288.546 685.412 290.409 695.08 294.315C679.478 299.749 672.45 300.938 668.158 317.829Z" fill="#FAFBFC"/>
<path d="M61.825 167.839C57.349 153.8 56.541 139.805 38.439 135.384C36.189 134.835 33.806 134.618 31.841 132.767C57.124 125.172 54.74 119.662 62.419 96.1621C69.21 119.886 67.064 125.023 92.01 132.903C82.523 136.807 70.723 138.927 67.028 150.933L61.825 167.839Z" fill="#FAFBFC"/>
<path d="M30.038 208.887C25.431 194.772 25.867 192.433 10.537 187.925C25.306 182.775 25.368 181.469 30.019 166.573C34.919 182.148 35.335 181.944 48.645 188.052C35.171 191.838 34.006 194.661 30.038 208.887Z" fill="#FAFBFC"/>
<path d="M622.066 319.141C622.011 327.71 628.006 333.936 637.299 336.075C628.319 338.299 622.732 343.154 621.996 352.152C621.518 353.448 620.77 353.784 620.384 352.044C619.55 346.435 616.403 340.879 611.325 339.954C610.312 337.951 607.99 336.405 605.406 336.458C612.954 332.519 619.937 328.128 620.448 319.14C620.961 319.033 621.565 319.291 622.065 319.14L622.066 319.141Z" fill="#FAFBFC"/>
<path d="M287.326 422.795L288.242 424.931H285.242C285.096 423.876 284.785 422.85 284.242 421.931C285.366 421.336 286.459 422.782 287.326 422.795Z" fill="#1B1F28"/>
<path d="M283.242 421.931V423.931C282.663 423.769 281.86 423.966 281.242 423.931C281.083 422.843 280.756 421.788 280.242 420.816C281.356 420.857 282.45 421.126 283.242 421.931Z" fill="#1B1F28"/>
<path d="M289.245 361.117C289.948 361.557 290.293 362.603 291.232 362.82C291.445 363.318 291.796 363.737 292.24 364.046L293.159 364.041C292.839 364.656 293.804 364.918 294.235 365.062C294.522 365.158 294.96 365.112 295.259 365.059C295.305 365.649 296.383 366.101 296.26 366.556C296.004 367.503 294.973 367.005 294.676 367.36C293.794 368.413 293.354 366.848 292.692 366.519L273.13 356.789C268.535 354.503 264.102 351.354 260.025 348.079L250.154 340.15C235.149 328.097 224.775 312.937 215.459 296.849C214.974 294.03 213.477 291.548 212.375 288.93C212.086 288.244 212.243 286.831 211.273 286.77C211.365 284.927 209.529 282.755 209.349 280.93C209.162 279.026 207.794 277.551 207.365 275.849C201.809 253.836 199.482 231.22 203.645 208.228L209.265 202.624L227.455 188.63C201.998 254.337 232.429 325.594 289.246 361.118L289.245 361.117Z" fill="#FAFBFC"/>
<path d="M397.73 201.517C412.965 201.517 425.315 189.167 425.315 173.932C425.315 158.697 412.965 146.347 397.73 146.347C382.495 146.347 370.145 158.697 370.145 173.932C370.145 189.167 382.495 201.517 397.73 201.517Z" fill="#FAFBFC"/>
<path d="M470.376 147.025L470.321 148.02C468.765 147.276 466.021 147.928 464.444 147.364C458.349 143.928 428.789 127.835 423.122 135.68C417.593 133.436 411.79 129.137 405.87 127.509L397.059 125.085C392.737 123.896 388.494 122.382 384.406 122.837L371.121 118.115C383.584 116.946 395.11 118.403 407.378 119.73C429.073 122.078 449.665 129.067 467.263 141.896C469.24 143.337 470.497 144.868 470.377 147.026L470.376 147.025Z" fill="#AFAFAF"/>
<path d="M271.94 241.151C270.581 243.554 270.003 247.052 269.662 250.098L267.323 270.996L263.231 268.907C263.348 263.831 259.47 260.73 256.286 256.785C250.509 249.627 251.127 237.784 257.212 231.386C259.398 229.088 262.796 228.751 265.109 229.551C269.698 231.139 269.496 240.908 271.94 241.151Z" fill="#AFAFAF"/>
<path d="M276.651 188.96C275.488 188.217 274.971 186.674 273.001 185.812C271.664 192.349 269.915 209.716 263.216 212.123C260.243 213.492 256.477 214.778 253.202 212.729C240.245 204.618 247.823 183.078 256.912 175.183C255.081 182.346 251.675 187.048 252.077 194.07C252.286 197.711 253.67 204.678 258.356 204.757C264.176 204.854 267.997 197.942 269.627 193.13C271.593 187.327 270.847 182.357 271.407 175.932C274.788 179.995 275.728 184.514 276.651 188.961V188.96Z" fill="#FAFBFC"/>
<path d="M362.161 346.941C362.248 347.446 362.321 347.999 362.435 348.37C362.72 349.301 363.943 349.05 364.735 348.885C365.508 348.724 365.27 347.497 365.242 346.854C372.541 346.649 380.113 346.172 387.361 348.345L377.3 350.037C378.128 351.232 379.402 351.408 380.247 352.014C380.391 353.9 379.288 355.478 377.986 356.072C376.141 356.913 373.942 356.927 372.281 356.938C369.164 353.842 363.366 352.033 359.357 355.762C361.923 357.9 365.192 357.467 365.241 360.153C362.155 360.952 360.757 363.541 360.396 366.589C358.972 366.245 357.411 366.64 355.976 366.634C351.291 360.917 354.099 358.75 347.505 350.064C345.859 350.587 344.014 350.478 343.516 349.365C343.202 348.665 342.101 347.162 343.399 346.768C345.192 347.016 346.869 348.188 348.57 347.784C350.185 347.4 350.997 345.844 351.273 344.188L362.161 346.941Z" fill="#1B1F28"/>
<path d="M367.925 213.225C372.817 213.225 376.782 209.26 376.782 204.368C376.782 199.477 372.817 195.511 367.925 195.511C363.033 195.511 359.068 199.477 359.068 204.368C359.068 209.26 363.033 213.225 367.925 213.225Z" fill="#FAFBFC"/>
<path d="M365.579 184.173C362.15 185.658 359.215 184.328 357.222 182.018C353.1 177.243 353.299 171.209 356.288 165.874C358.466 161.986 361.32 158.237 366.482 159.362C362.364 167.164 362.049 175.618 365.58 184.173H365.579Z" fill="#FAFBFC"/>
<path d="M304.719 184.88C306.279 187.381 306.5 190.326 305.567 192.747C304.914 194.44 303.186 196.685 300.212 196.496C296.823 196.281 294.716 193.142 294.062 190.855C293.139 187.628 293.504 184.078 296.143 182.004C299.173 179.622 302.731 181.692 304.719 184.88Z" fill="#FAFBFC"/>
<path d="M324.578 355.774L325.234 351.168C331.305 349.182 337.98 351.744 342.01 357.163C342.846 358.287 342.558 360.094 341.898 360.96C338.589 365.306 327.858 359.263 324.577 355.775L324.578 355.774Z" fill="#FAFBFC"/>
<path d="M278.229 151.181C277.112 155.895 272.282 171.869 266.873 171.34C259.307 170.601 273.866 152.756 278.229 151.181Z" fill="#AFAFAF"/>
<path d="M325.234 351.167L324.578 355.773C324.226 358.242 323.59 360.701 321.501 363.246C317.645 358.576 313.033 360.044 312.532 357.287C311.865 353.617 315.979 354.644 316.216 350.757L317.376 349.697C320.103 349.578 322.559 350.926 325.234 351.167Z" fill="#161A23"/>
<path d="M339.951 239.89C342.755 239.89 345.028 237.617 345.028 234.813C345.028 232.009 342.755 229.736 339.951 229.736C337.147 229.736 334.874 232.009 334.874 234.813C334.874 237.617 337.147 239.89 339.951 239.89Z" fill="#FAFBFC"/>
<path d="M323.778 142.706C321.916 143.974 320.421 144.758 318.828 144.763C317.521 144.767 315.079 143.768 315.035 141.375C314.957 137.168 320.854 133.112 324.772 135.41C327.571 137.051 326.061 141.152 323.778 142.706Z" fill="#FAFBFC"/>
<path d="M300.473 357.004C301.228 360.849 299.165 364.371 295.258 365.059C294.959 365.112 294.522 365.157 294.234 365.062C294.045 364.574 293.642 364.225 293.158 364.041L292.239 364.046C291.869 363.796 291.69 362.926 291.231 362.82C290.293 362.603 289.948 361.556 289.244 361.117C289.479 357.208 292.577 355.145 294.711 352.096C297.115 353.132 298.681 355.271 300.473 357.004Z" fill="#161A23"/>
<path d="M241.389 247.996C237.524 242.358 237.575 235.792 240.32 229.817C243.134 235.673 243.891 242.089 241.389 247.996Z" fill="#FAFBFC"/>
<path d="M256.637 310.873C249.435 306.242 245.446 299.244 244.687 291.07C249.76 297.007 253.192 303.405 256.637 310.873Z" fill="#FAFBFC"/>
<path d="M338.731 340.654C333.105 343.257 326.791 340.684 322.585 335.851C328.579 335.107 333.676 336.697 338.731 340.654Z" fill="#FAFBFC"/>
<path d="M311.122 228.989C313.344 228.989 315.145 227.188 315.145 224.966C315.145 222.744 313.344 220.943 311.122 220.943C308.9 220.943 307.099 222.744 307.099 224.966C307.099 227.188 308.9 228.989 311.122 228.989Z" fill="#FAFBFC"/>
<path d="M275.992 333.76C270.397 332.36 266.217 327.691 264 321.935C269.553 323.933 273.893 327.496 275.992 333.76Z" fill="#FAFBFC"/>
<path d="M300.473 357.004C298.681 355.271 297.116 353.132 294.712 352.096C294.844 351.339 294.927 350.594 295.223 349.79C299.865 351.665 304.302 354.166 307.171 358.41C304.864 358.14 301.882 358.367 300.473 357.004Z" fill="#FAFBFC"/>
<path d="M282.344 193.129C280.67 187.961 280.681 182.779 283.035 177.544C285.159 182.672 285.662 187.888 282.344 193.129Z" fill="#AFAFAF"/>
<path d="M401.707 240.025C403.743 240.025 405.393 238.375 405.393 236.339C405.393 234.303 403.743 232.653 401.707 232.653C399.671 232.653 398.021 234.303 398.021 236.339C398.021 238.375 399.671 240.025 401.707 240.025Z" fill="#FAFBFC"/>
<path d="M296.8 142.056L292.921 150.822C292.349 151.402 292.089 152.174 291.551 152.336C290.834 152.553 289.808 151.67 289.806 150.505C289.798 146.51 293.096 142.924 296.8 142.055V142.056Z" fill="#AFAFAF"/>
<path d="M234.7 273.71C231.152 269.669 228.757 264.054 230.278 258.34C232.563 262.834 234.747 267.434 234.7 273.71Z" fill="#FAFBFC"/>
<path d="M295.26 340.986C295.357 339.385 293.633 339.033 292.593 338.71C291.75 336.456 288.838 334.835 288.259 331.761C293.08 331.944 296.143 336.336 298.899 339.953C298.337 341.376 296.273 340.633 295.259 340.985L295.26 340.986Z" fill="#FAFBFC"/>
<path d="M229.974 219.484C231.188 224.204 233.32 228.341 230.299 232.371C227.505 228.577 228.006 224.325 228.736 219.871C227.319 217.653 230.555 216.809 229.974 219.483V219.484Z" fill="#FAFBFC"/>
<path d="M247.288 273.516C244.087 270.932 242.496 266.537 244.906 262.732C248.171 265.792 248.913 269.956 247.288 273.516Z" fill="#FAFBFC"/>
<path d="M302.657 163.269C304.385 163.269 305.786 161.868 305.786 160.14C305.786 158.412 304.385 157.011 302.657 157.011C300.929 157.011 299.528 158.412 299.528 160.14C299.528 161.868 300.929 163.269 302.657 163.269Z" fill="#FAFBFC"/>
<path d="M380.812 257.408C382.405 257.408 383.697 256.117 383.697 254.523C383.697 252.93 382.405 251.638 380.812 251.638C379.219 251.638 377.927 252.93 377.927 254.523C377.927 256.117 379.219 257.408 380.812 257.408Z" fill="#FAFBFC"/>
<path d="M235.924 202.285C234.887 206.565 236.839 209.64 234.86 213.073C232.293 210.187 233.038 206.307 234.624 202.845C233.399 200.556 236.597 199.981 235.924 202.286V202.285Z" fill="#AFAFAF"/>
<path d="M360.397 366.59C362.801 367.172 365.367 367.025 367.258 368.766C363.756 370.863 359.359 369.532 355.883 367.708L355.977 366.635C357.412 366.641 358.973 366.246 360.397 366.59Z" fill="#FAFBFC"/>
<path d="M353.28 126.579C351.14 127.554 349.14 126.979 347.331 125.912C348.607 124.347 351.49 122.004 352.951 122.946C353.946 123.588 355.191 125.708 353.28 126.579Z" fill="#FAFBFC"/>
<path d="M306.804 331.376L305.185 333.525L312.204 338.813L313.823 336.664L306.804 331.376Z" fill="#AFAFAF"/>
<path d="M347.949 185.46C349.354 185.46 350.493 184.321 350.493 182.916C350.493 181.511 349.354 180.372 347.949 180.372C346.544 180.372 345.405 181.511 345.405 182.916C345.405 184.321 346.544 185.46 347.949 185.46Z" fill="#FAFBFC"/>
<path d="M365.929 270.049C367.234 270.049 368.291 268.992 368.291 267.687C368.291 266.383 367.234 265.325 365.929 265.325C364.625 265.325 363.567 266.383 363.567 267.687C363.567 268.992 364.625 270.049 365.929 270.049Z" fill="#FAFBFC"/>
<path d="M317.376 349.697L316.216 350.757C314.369 349.317 311.38 349.01 310.808 345.766C313.871 345.419 316.195 347.504 317.376 349.697Z" fill="#FAFBFC"/>
<path d="M319.824 252.526C321.112 252.526 322.157 251.482 322.157 250.193C322.157 248.905 321.112 247.86 319.824 247.86C318.536 247.86 317.491 248.905 317.491 250.193C317.491 251.482 318.536 252.526 319.824 252.526Z" fill="#FAFBFC"/>
<path d="M295.26 340.986C294.807 342.11 294.389 345.626 292.312 344.719C289.959 343.692 292.326 340.257 292.593 338.71C293.633 339.033 295.357 339.384 295.26 340.986Z" fill="#161A23"/>
<path d="M298.242 394.046C296.772 393.992 295.223 393.947 294.129 392.875C294.371 392.507 295.057 392.294 295.242 391.93C296.652 391.843 297.963 392.613 298.242 394.046Z" fill="#1B1F28"/>
<path d="M303.242 395.06C301.901 394.879 300.078 395.39 299.242 394.084C299.736 393.246 300.61 392.669 301.564 392.98C302.507 393.288 303.023 394.168 303.242 395.06Z" fill="#1B1F28"/>
<path d="M307.363 395.928C306.318 395.752 304.759 396.38 304.242 395.109C304.641 394.201 305.803 393.508 306.713 393.943C307.433 394.287 307.83 395.267 307.362 395.928H307.363Z" fill="#1B1F28"/>
<path d="M464.444 147.364C467.589 150.566 470.837 153.683 475.181 156.347C475.219 152.184 472.388 150.128 470.321 148.021L470.376 147.026C472.238 146.244 474.045 146.923 475.824 148.5C495.548 165.984 508.382 188.875 514.308 214.105C514.652 215.571 515.099 217.511 515.245 218.99C516.791 234.642 517.925 250.53 514.329 266.014C512.086 275.671 509.238 286.193 504.941 295.137C498.596 308.343 488.802 319.39 480.022 330.88L472.61 336.114C469.956 336.132 481.175 321.606 479.127 315.813C471.523 324.868 462.914 332.826 452.395 338.035C450.422 339.012 448.17 338.821 446.274 340.308C444.352 341.816 440.627 341.101 439.946 344.116C438.483 344.976 436.723 344.563 435.145 344.977C420.298 339.757 426.769 362.038 401.302 355.074C401.015 353.711 399.535 352.222 398.284 351.917C396.094 351.383 394.17 352.739 392.242 352.736L385.242 352.726C384.779 351.513 383.083 352.116 382.077 352.138C381.465 352.152 380.844 352.172 380.248 352.017C379.403 351.411 378.128 351.234 377.301 350.04L387.362 348.348C380.114 346.175 372.542 346.652 365.243 346.857L362.162 346.944L351.275 344.191C350.861 343.724 350.363 343.197 350.441 342.458C352.476 342.017 354.247 342.716 355.899 340.949C352.719 338.433 349.302 339.184 346.175 337.958C339.663 335.406 334.99 330.319 329.2 325.643C327.014 327.159 329.273 328.847 329.692 331.223C314.429 333.207 312.199 314.918 294.628 319.284C286.834 321.22 279.082 319.236 272.638 314.629C260.861 306.21 256.472 291.718 261.277 278.032C262.351 274.972 263.168 271.81 263.234 268.911L267.326 271L269.665 250.102C270.006 247.056 270.584 243.558 271.943 241.155C275.15 235.482 274.903 228.636 270.36 223.748C273.812 219.97 277.735 225.225 282.384 223.955C283.473 226.948 279.654 235.034 282.908 235.198C283.567 232.326 283.96 229.963 286.164 228.652C294.524 233.518 295.89 249.761 306.947 258.428C306.932 253.714 303.851 251.193 303.329 246.784C315.695 254.611 315.02 263.519 324.402 269.957C361.646 295.515 419.49 280.616 436.652 235.424C444.268 215.369 443.819 192.644 435.295 172.922C427.839 155.671 415.295 141.018 399.526 131.737L384.409 122.84C388.497 122.386 392.74 123.899 397.062 125.088L405.873 127.512C411.793 129.14 417.596 133.439 423.125 135.683C428.793 127.838 458.352 143.931 464.447 147.367L464.444 147.364ZM451.555 153.863C450.229 148.318 445.152 145.699 441.318 148.506C444.11 151.65 447.485 155.669 451.555 153.863ZM465.326 185.847C466.586 193.691 473.552 200.352 481.311 202.802C484.489 203.806 486.097 201.703 486.969 199.812C487.646 198.345 489.223 197.242 488.761 194.814C486.042 180.506 472.461 170.773 466.537 175.847C463.571 178.388 463.397 182.442 465.325 185.846L465.326 185.847ZM457.289 200.758C459.552 199.269 457.631 195.254 455.397 195.489C453.734 195.664 454.141 198.279 454.627 199.094C455.017 199.745 455.89 201.678 457.289 200.758ZM464.326 230.863C463.493 236.7 468.739 242.216 474.952 241.795C476.912 241.662 478.471 240.829 479.203 238.857C483.423 235.802 482.211 229.392 478.703 225.495C476.271 222.794 472.761 221.406 469.566 222.715C466.607 223.927 464.287 226.72 464.326 230.862V230.863ZM276.305 254.784C276.244 258.729 279.334 263.038 284.3 262.855C286.316 262.781 288.005 261.393 288.279 258.926C288.799 254.23 287.069 249.676 282.795 247.59C280.619 246.528 278.09 246.964 276.649 248.705C275.48 250.119 275.381 252.511 276.305 254.784ZM493.379 263.571C497.369 260.691 497.564 255.496 495.675 251.694C491.045 254.744 486.376 258.338 489.112 262.578C489.735 263.544 491.551 264.89 493.379 263.57V263.571ZM439.862 265.163C441.025 263.269 440.421 261.741 438.767 261.65C437.466 261.579 434.354 264.185 434.898 266.194C435.215 267.364 436.449 268.176 437.574 267.68C438.356 267.335 439.034 266.511 439.862 265.163ZM446.079 294.939C445.678 299.222 448.643 302.933 451.914 305.037C457.266 308.48 467.348 306.168 470.499 300.834C476.797 296.536 479.52 287.741 478.395 279.895C477.406 272.996 471.998 268.761 465.342 268.564C457.407 268.329 450.965 272.27 447.562 279.264C445.172 284.176 443.885 289.614 446.079 294.939ZM269.389 293.795C271.113 304.512 281.422 312.501 292.363 309.937C298.614 308.472 304.7 305.876 304.606 296.593C304.489 285.061 294.339 275.606 282.267 276.111C277.659 276.304 273.631 277.97 271.216 281.396C268.86 284.737 268.242 289.144 269.389 293.795ZM496.522 278.686C494.228 277.662 492.547 280.587 491.477 281.958C489.956 283.906 489.238 286.914 491.249 288.892C494.367 286.589 496.246 283.764 496.522 278.686ZM409.132 295.249C410.66 294.241 411.074 292.426 410.525 291.685C409.626 290.474 407.875 290.72 406.562 291.406C404.943 292.252 404.194 293.996 405.052 294.902C406.05 295.956 407.607 296.255 409.132 295.249ZM358.232 296.449C358.232 295.26 357.268 294.295 356.078 294.295C354.888 294.295 353.924 295.259 353.924 296.449C353.924 297.639 354.888 298.603 356.078 298.603C357.268 298.603 358.232 297.639 358.232 296.449ZM420.245 306.039C418.843 307.623 419.217 309.723 421.044 311.184C422.835 312.617 424.49 313.011 426.578 312.822C429.043 312.598 430.075 311.607 431.302 308.902C432.126 307.087 434.679 305.42 432.28 302.534C430.611 300.526 427.853 299.498 425.043 300.368C423.002 301 420.634 302.574 420.244 306.038L420.245 306.039ZM321.132 308.025C321.233 312.86 325.141 317.242 330.37 317.66C332.385 317.821 334.233 316.94 335.287 315.004C337.087 314.862 338.264 313.24 338.107 310.913C337.71 305.029 332.084 301.183 326.23 301.791C323.047 302.122 321.136 304.616 321.132 308.025ZM378.176 320.015C377.525 323.852 380.454 326.754 383.557 328.197C387.268 329.922 390.787 330.383 394.401 327.755C396.938 325.911 399.352 324.149 398.196 319.983C397.052 315.858 393.715 313.145 390.375 312.328C385.636 311.169 381.458 312.346 378.534 316.19C377.693 317.296 377.354 318.556 378.175 320.016L378.176 320.015ZM465.354 315.469C460.331 314.673 456.573 318.398 455.036 322.551C459.887 323.68 463.853 320.294 465.354 315.469ZM445.216 318.283C445.054 317.346 444.257 316.909 443.666 316.883C441.699 316.797 440.205 318.551 440.228 319.206C440.258 320.054 441.222 321.079 442.051 320.962C442.596 320.886 445.368 319.167 445.216 318.283ZM363.268 333.391C364.157 331.557 360.028 328.882 358.591 330.586C357.642 331.711 358.841 332.788 359.461 333.28C360.081 333.772 362.458 335.064 363.268 333.391ZM448.492 331.735C449.039 327.686 436.854 333.431 435.678 335.954C437.641 337.974 441.736 337.808 444.112 337.302C446.026 336.894 448.129 334.42 448.492 331.735ZM382.393 338.95C382.839 337.421 380.676 336.566 379.792 336.455C379.129 336.371 377.477 336.737 377.689 337.818C378.14 340.12 381.763 341.111 382.393 338.95ZM400.381 344.818C400.507 345.444 400.177 346.537 400.823 347.464C404.718 353.056 413.638 353.971 417.444 347.852C418.405 346.307 420.786 346.159 419.968 343.375C419.342 341.246 418.287 339.586 415.8 338.542C409.772 336.011 402.139 337.625 400.381 344.818Z" fill="#FAFBFC"/>
<path d="M276.651 188.96C279.17 201.092 274.762 199.904 277.616 207.979C278.894 206.864 279.488 205.37 280.649 205.419C285.037 205.604 285.017 220.798 282.381 223.952C277.732 225.222 273.809 219.967 270.357 223.745C266.697 222.981 263.408 223.996 259.164 224.813C262.062 220.827 261.862 216.303 263.216 212.122C269.915 209.715 271.664 192.348 273.001 185.811C274.971 186.673 275.489 188.217 276.651 188.96Z" fill="#AFAFAF"/>
<path d="M256.36 107.585C250.575 114.147 241.928 117.579 233.566 117.593C227.457 117.603 223.598 111.963 224.384 106.785C231.538 98.4761 236.633 91.414 250.156 90.836C254.813 90.637 257.906 93.6171 257.931 98.3761C257.948 101.531 256.777 104.636 256.361 107.586L256.36 107.585Z" fill="#929293"/>
<path d="M233.2 134.247L184.094 172.867C147.039 202.009 93.959 235.925 47.939 244.552C85.035 219.159 102.828 183.875 126.718 148.352C146.093 119.163 165.317 96.2661 193.755 75.5431C201.401 69.9711 208.338 64.1071 216.673 59.6381C217.742 59.0651 219.565 60.1731 220.888 59.5811C226.665 56.9931 238.79 52.6791 242.82 57.8961C247.499 63.9541 235.846 75.7421 231.374 80.0811C222.873 88.3321 212.415 100.272 213.442 112.581C214.047 119.827 218.333 124.919 225.253 126.248C231.782 127.502 237.504 126.05 244.532 124.679C237.323 134.175 229.263 130.882 220.099 131.229C223.532 135.147 227.721 133.202 233.2 134.247ZM231.62 64.4451C231.19 60.7851 223.818 65.6921 224.466 70.1001C227.432 70.7021 232.078 68.3451 231.62 64.4451ZM190.328 80.9541L187.824 86.5881L189.677 87.4111L192.181 81.7771L190.328 80.9541ZM205.709 92.3241C208.881 91.3021 212.833 85.0431 209.089 83.3091C206.179 81.9611 199.172 89.7001 202.651 92.0431C203.167 92.3901 203.97 92.8851 205.709 92.3251V92.3241ZM179.618 99.2491C179.21 96.1841 176.364 98.6621 175.462 99.5961C174.676 100.41 172.662 102.505 174.403 103.872C176.458 105.485 180.059 102.556 179.618 99.2491ZM179.297 138.364C186.601 136.124 191.162 129.185 190.296 122.073C189.748 117.572 185.587 114.848 181.303 116.207C173.976 118.533 169.09 126.105 170.547 133.833C171.229 137.452 175.471 139.537 179.297 138.363V138.364ZM158.515 123.664C157.285 120.379 154.338 123.247 153.308 124.492C151.958 126.124 151.879 128.976 154.506 129.612C156.88 130.187 159.547 126.419 158.515 123.664ZM202.689 137.252C206.385 136.105 210.518 129.177 206.364 126.818C203.028 124.924 196.175 134.772 199.72 136.915C200.276 137.251 200.989 137.779 202.689 137.252ZM187.939 155.12C189.514 153.427 188.921 151.657 187.916 150.755C186.559 149.536 184.937 149.958 183.613 151.301C182.518 152.411 181.612 153.74 182.216 155.33C182.502 156.084 183.568 156.8 184.696 156.777C185.602 156.758 186.782 156.365 187.94 155.12H187.939ZM145.601 171.381C146.79 167.075 151.05 165.015 151.418 161.942C151.885 158.041 149.469 153.713 147.757 150.591C143.287 155.249 139.553 158.335 135.191 162.172C139.671 165.17 142.182 167.416 145.6 171.382L145.601 171.381ZM120.86 184.074C122.36 182.143 121.215 180.29 120.124 179.604C118.54 178.608 117.192 179.507 116.045 180.751C114.933 181.957 114.4 183.352 115.102 184.775C115.512 185.607 116.558 186.355 117.609 186.307C118.768 186.254 119.791 185.45 120.86 184.074ZM103.545 205.941C104.388 204.319 103.798 202.945 102.906 202.889C100.502 202.739 98.721 205.442 99.172 207.243C99.436 208.294 100.825 208.415 101.604 208.088C102.173 207.849 102.849 207.281 103.544 205.942L103.545 205.941Z" fill="#1B1F28"/>
<path d="M408.287 426.123C411.499 427.865 395.081 430.477 396.158 427.798C399.979 427.231 404.295 425.68 408.287 426.123Z" fill="#1B1F28"/>
<path d="M107.368 265.96C104.817 267.91 99.556 269.447 96.15 269.939C95.387 267.022 99.277 268.867 105.665 265.164C106.427 264.722 107.436 265.196 107.367 265.96H107.368Z" fill="#1B1F28"/>
<path d="M318.326 427.808C316.287 429.891 311.26 429.863 310.242 426.808C312.971 427.243 316.001 426.129 318.326 427.808Z" fill="#1B1F28"/>
<path d="M309.242 426.766C309.257 428.208 307.666 427.884 306.759 428.013C305.093 428.251 303.736 427.716 304.242 425.868C305.754 425.942 307.985 425.178 309.242 426.766Z" fill="#1B1F28"/>
<path d="M322.242 428.606C322.28 429.231 322.672 431.076 321.191 430.976C319.644 430.872 320.289 428.728 320.11 427.934C320.856 427.886 321.596 428.571 322.241 428.606H322.242Z" fill="#1B1F28"/>
<path d="M383.392 428.934C384.005 429.964 383.078 431.215 381.737 431.018C381.138 430.93 380.569 430.271 380.243 429.575C380.724 428.349 382.398 429.173 383.393 428.935L383.392 428.934Z" fill="#161A23"/>
<path d="M279.242 420.779C278.868 421.708 277.97 422.227 277.22 421.523C276.687 421.022 276.404 420.42 276.242 419.816C277.305 419.855 278.638 419.737 279.242 420.779Z" fill="#1B1F28"/>
<path d="M275.242 419.779C275.107 420.169 274.857 420.683 274.55 420.831C273.984 421.104 273.282 420.884 273.238 420.396C273.188 419.834 273.255 419.319 273.242 418.884C273.976 418.741 274.873 419.147 275.242 419.779Z" fill="#1B1F28"/>
<path d="M330.742 430.931C331.018 430.931 331.242 430.707 331.242 430.431C331.242 430.155 331.018 429.931 330.742 429.931C330.466 429.931 330.242 430.155 330.242 430.431C330.242 430.707 330.466 430.931 330.742 430.931Z" fill="#161A23"/>
<path d="M292.363 309.936C295.773 306.822 294.945 302.249 293.362 297.879C290.592 290.231 282.638 284.53 274.737 288.197C272.128 289.408 271.417 292.53 269.388 293.795C268.24 289.144 268.858 284.737 271.215 281.395C273.631 277.969 277.659 276.303 282.266 276.11C294.338 275.605 304.488 285.06 304.605 296.592C304.699 305.876 298.613 308.471 292.362 309.936H292.363Z" fill="#1B1F28"/>
<path d="M470.499 300.834L470.687 287.958C470.757 283.161 467.096 280.002 462.147 280.416C452.522 281.219 449.881 289.153 446.079 294.94C443.885 289.616 445.172 284.177 447.562 279.265C450.965 272.271 457.406 268.331 465.342 268.565C471.998 268.762 477.407 272.997 478.395 279.896C479.519 287.741 476.797 296.536 470.499 300.834Z" fill="#1B1F28"/>
<path d="M470.499 300.834C467.348 306.168 457.267 308.48 451.914 305.037C448.643 302.933 445.678 299.222 446.079 294.939C449.88 289.152 452.522 281.219 462.147 280.415C467.096 280.002 470.757 283.16 470.687 287.957L470.499 300.833V300.834Z" fill="#929293"/>
<path d="M292.363 309.936C281.423 312.5 271.113 304.512 269.389 293.794C271.417 292.529 272.129 289.407 274.738 288.196C282.639 284.529 290.593 290.23 293.363 297.878C294.946 302.248 295.774 306.821 292.364 309.935L292.363 309.936Z" fill="#929293"/>
<path d="M435.145 344.976C435.136 346.04 434.817 347.477 435.281 348.403C436.034 349.906 437.938 348.177 439.686 349.826C435.578 352.202 431.091 354.214 426.301 355.932C424.228 356.676 421.343 354.144 419.527 355.289C417.299 356.694 418.654 359.957 418.354 361.866C415.398 362.924 412.149 363.873 410.425 366.585C409.634 367.829 407.965 368.872 406.723 368.94C405.11 369.028 398.914 366.279 398.272 363.498C398.048 362.527 397.984 361.422 399.173 360.396C400.383 359.352 402.03 359.928 404.156 359.768C404.071 357.162 401.721 357.055 401.303 355.074C426.77 362.038 420.298 339.757 435.146 344.977L435.145 344.976Z" fill="#1B1F28"/>
<path d="M486.969 199.813C483.453 196.878 482.468 190.521 477 186.147C473.168 183.082 468.427 182.332 465.326 185.847C463.398 182.444 463.571 178.389 466.538 175.848C472.462 170.774 486.043 180.507 488.762 194.815C489.223 197.242 487.646 198.345 486.97 199.813H486.969Z" fill="#1B1F28"/>
<path d="M486.969 199.813C486.097 201.703 484.489 203.806 481.311 202.803C473.552 200.352 466.586 193.691 465.326 185.848C468.426 182.333 473.168 183.082 477 186.148C482.468 190.523 483.453 196.879 486.969 199.814V199.813Z" fill="#929293"/>
<path d="M472.609 336.112C472.575 336.418 472.516 336.719 472.433 337.015C470.623 337.777 468.538 338.841 468.241 340.931L466.241 340.642C459.979 335.259 453.007 345.229 452.393 338.033C462.912 332.824 471.521 324.866 479.125 315.811C481.173 321.604 469.955 336.13 472.609 336.112Z" fill="#1B1F28"/>
<path d="M394.402 327.755C394.93 322.822 390.713 318.482 385.284 318.773C382.556 318.919 380.325 319.495 378.176 320.014C377.355 318.555 377.694 317.294 378.535 316.188C381.458 312.344 385.637 311.168 390.376 312.326C393.716 313.142 397.052 315.855 398.197 319.981C399.353 324.148 396.939 325.91 394.402 327.753V327.755Z" fill="#1B1F28"/>
<path d="M479.203 238.858C478.471 240.83 476.912 241.663 474.952 241.796C468.739 242.217 463.494 236.7 464.326 230.864C466.237 230.495 467.71 227.67 470.265 228.028C475.764 228.8 477.96 234.355 479.203 238.858Z" fill="#929293"/>
<path d="M479.203 238.858C477.959 234.355 475.764 228.8 470.266 228.028C467.711 227.669 466.238 230.495 464.327 230.864C464.288 226.723 466.609 223.929 469.567 222.717C472.761 221.408 476.272 222.795 478.704 225.497C482.212 229.394 483.423 235.804 479.204 238.859L479.203 238.858Z" fill="#1B1F28"/>
<path d="M394.402 327.755C390.787 330.382 387.268 329.922 383.558 328.197C380.455 326.754 377.526 323.852 378.177 320.015C380.326 319.496 382.556 318.92 385.285 318.774C390.714 318.483 394.931 322.823 394.403 327.756L394.402 327.755Z" fill="#929293"/>
<path d="M335.287 315.004C331.824 310.088 327.239 306.809 321.132 308.025C321.136 304.616 323.047 302.122 326.23 301.791C332.084 301.183 337.71 305.029 338.107 310.913C338.264 313.241 337.087 314.862 335.287 315.004Z" fill="#1B1F28"/>
<path d="M417.444 347.852C413.986 341.119 406.25 343.024 400.381 344.818C402.139 337.625 409.772 336.011 415.8 338.542C418.287 339.586 419.342 341.246 419.968 343.375C420.786 346.159 418.405 346.307 417.444 347.852Z" fill="#1B1F28"/>
<path d="M417.444 347.852C413.638 353.971 404.718 353.057 400.823 347.464C400.177 346.537 400.507 345.444 400.381 344.818C406.25 343.024 413.986 341.12 417.444 347.852Z" fill="#929293"/>
<path d="M284.3 262.855C284.849 260.215 284.893 257.378 282.483 255.257C280.925 253.886 278.292 252.821 276.305 254.784C275.38 252.512 275.48 250.119 276.649 248.705C278.089 246.963 280.618 246.528 282.795 247.59C287.07 249.676 288.8 254.23 288.279 258.926C288.006 261.393 286.316 262.781 284.3 262.855Z" fill="#1B1F28"/>
<path d="M335.287 315.004C334.234 316.94 332.385 317.821 330.37 317.66C325.141 317.242 321.232 312.86 321.132 308.025C327.239 306.809 331.824 310.088 335.287 315.004Z" fill="#929293"/>
<path d="M431.302 308.902C428.006 306.632 424.213 305.895 420.244 306.038C420.634 302.574 423.002 300.999 425.043 300.368C427.852 299.498 430.611 300.526 432.28 302.534C434.679 305.42 432.126 307.087 431.302 308.902Z" fill="#1B1F28"/>
<path d="M493.379 263.571C491.551 264.891 489.736 263.545 489.112 262.579C486.375 258.338 491.044 254.745 495.675 251.695C497.564 255.497 497.369 260.69 493.379 263.571Z" fill="#1B1F28"/>
<path d="M448.492 331.735C448.129 334.42 446.027 336.893 444.112 337.301C441.735 337.808 437.641 337.973 435.678 335.953C436.854 333.431 449.039 327.685 448.492 331.734V331.735Z" fill="#1B1F28"/>
<path d="M431.302 308.902C430.075 311.607 429.042 312.598 426.578 312.822C424.49 313.011 422.835 312.617 421.044 311.184C419.217 309.722 418.843 307.623 420.245 306.039C424.214 305.896 428.007 306.633 431.303 308.903L431.302 308.902Z" fill="#AFAFAF"/>
<path d="M450.402 345.976C449.247 347.793 447.415 349.034 445.294 349.414C442.947 348.342 441.725 345.906 439.945 344.115C440.626 341.1 444.351 341.815 446.273 340.307C446.782 343.105 450.704 342.429 450.402 345.976Z" fill="#1B1F28"/>
<path d="M284.3 262.855C279.334 263.038 276.245 258.73 276.305 254.784C278.292 252.821 280.925 253.886 282.483 255.257C284.893 257.378 284.849 260.215 284.3 262.855Z" fill="#929293"/>
<path d="M451.555 153.863C447.484 155.668 444.11 151.65 441.318 148.506C445.152 145.699 450.229 148.319 451.555 153.863Z" fill="#1B1F28"/>
<path d="M465.354 315.469C463.853 320.295 459.887 323.68 455.036 322.551C456.573 318.398 460.331 314.672 465.354 315.469Z" fill="#1B1F28"/>
<path d="M496.522 278.686C496.246 283.764 494.367 286.589 491.249 288.892C489.238 286.914 489.956 283.906 491.477 281.958C492.548 280.587 494.228 277.661 496.522 278.686Z" fill="#1B1F28"/>
<path d="M470.321 148.02C472.388 150.127 475.219 152.183 475.181 156.346C470.837 153.683 467.589 150.566 464.444 147.363C466.021 147.928 468.764 147.276 470.321 148.02Z" fill="#929293"/>
<path d="M439.862 265.163C439.035 266.511 438.356 267.335 437.573 267.68C436.449 268.176 435.214 267.364 434.897 266.194C434.353 264.185 437.465 261.579 438.766 261.65C440.421 261.741 441.025 263.269 439.862 265.163Z" fill="#1B1F28"/>
<path d="M409.132 295.249C407.607 296.255 406.05 295.955 405.052 294.902C404.194 293.996 404.943 292.252 406.562 291.406C407.875 290.72 409.626 290.474 410.525 291.685C411.074 292.425 410.661 294.24 409.132 295.249Z" fill="#1B1F28"/>
<path d="M457.289 200.758C455.89 201.678 455.017 199.746 454.627 199.094C454.14 198.28 453.733 195.664 455.397 195.489C457.632 195.254 459.552 199.269 457.289 200.758Z" fill="#1B1F28"/>
<path d="M356.078 298.603C357.268 298.603 358.232 297.639 358.232 296.449C358.232 295.26 357.268 294.295 356.078 294.295C354.888 294.295 353.924 295.26 353.924 296.449C353.924 297.639 354.888 298.603 356.078 298.603Z" fill="#1B1F28"/>
<path d="M363.268 333.391C362.457 335.064 360.084 333.773 359.462 333.28C358.84 332.787 357.643 331.71 358.592 330.586C360.029 328.883 364.156 331.557 363.268 333.391Z" fill="#1B1F28"/>
<path d="M445.216 318.283C445.368 319.168 442.596 320.886 442.051 320.962C441.222 321.078 440.258 320.054 440.228 319.206C440.205 318.551 441.698 316.797 443.666 316.883C444.257 316.909 445.055 317.346 445.216 318.283Z" fill="#1B1F28"/>
<path d="M382.393 338.95C381.763 341.111 378.141 340.12 377.689 337.818C377.477 336.737 379.129 336.371 379.792 336.455C380.676 336.566 382.839 337.421 382.393 338.95Z" fill="#1B1F28"/>
<path d="M398.284 351.915C397.959 353.241 396.75 353.914 395.686 353.964C394.265 354.03 392.351 354.396 392.242 352.734C394.17 352.737 396.094 351.381 398.284 351.915Z" fill="#1B1F28"/>
<path d="M385.242 352.724C384.754 353.104 384.335 353.943 383.714 354.009C382.471 354.14 381.61 353.177 382.076 352.136C383.083 352.114 384.779 351.511 385.242 352.724Z" fill="#1B1F28"/>
<path d="M446.255 353.949C445.231 353.335 444.314 352.529 443.205 352.051L445.294 349.413C447.415 349.033 449.247 347.792 450.402 345.975C451.981 345.874 453.29 344.394 455.579 344.963C454.894 349.556 446.777 351.497 446.255 353.949Z" fill="#FAFBFC"/>
<path d="M418.355 361.865C419.257 361.542 420.473 361.462 421.572 361.925C422.178 362.181 422.077 363.329 422.19 363.941L414.224 366.82C412.969 366.615 411.697 366.543 410.426 366.584C412.15 363.872 415.399 362.923 418.355 361.865Z" fill="#FAFBFC"/>
<path d="M387.158 367.616C386.168 367.474 385.21 367.709 384.242 367.857C383.545 367.964 382.768 368.136 382.064 368.143C380.526 368.159 378.855 367.651 377.326 367.873C377.197 367.592 377.14 367.229 376.894 366.978C375.479 365.525 389.524 363.848 387.158 367.616Z" fill="#FAFBFC"/>
<path d="M209.347 280.931C207.881 281.245 207.245 280.205 206.901 278.748C206.698 277.888 205.636 276.13 207.362 275.85C207.792 277.552 209.159 279.027 209.346 280.931H209.347Z" fill="#1B1F28"/>
<path d="M212.373 288.931C211.8 288.919 210.74 289.281 210.247 288.426C209.912 287.844 211.095 287.214 211.27 286.771C212.241 286.832 212.084 288.245 212.372 288.931H212.373Z" fill="#1B1F28"/>
<path d="M372.281 356.94C371.994 357.588 371.64 358.205 371.189 358.754C369.725 358.398 368.311 359.035 367.367 360.169L365.241 360.156C365.192 357.47 361.922 357.903 359.357 355.765C363.366 352.035 369.163 353.844 372.281 356.94Z" fill="#FAFBFC"/>
<path d="M179.297 138.364C175.471 139.537 171.229 137.452 170.547 133.834C169.091 126.106 173.976 118.534 181.303 116.208C185.586 114.848 189.748 117.573 190.296 122.074C191.162 129.186 186.601 136.124 179.297 138.364Z" fill="#FAFBFC"/>
<path d="M145.601 171.381C142.183 167.415 139.672 165.169 135.192 162.171C139.554 158.334 143.288 155.248 147.758 150.59C149.47 153.713 151.886 158.04 151.419 161.941C151.051 165.015 146.791 167.074 145.602 171.38L145.601 171.381Z" fill="#FAFBFC"/>
<path d="M202.689 137.252C200.989 137.78 200.276 137.252 199.72 136.915C196.176 134.772 203.029 124.924 206.364 126.818C210.518 129.177 206.386 136.104 202.689 137.252Z" fill="#FAFBFC"/>
<path d="M120.86 184.074C119.791 185.45 118.768 186.253 117.609 186.307C116.558 186.355 115.513 185.607 115.102 184.775C114.4 183.352 114.933 181.958 116.045 180.751C117.191 179.507 118.54 178.608 120.124 179.604C121.215 180.29 122.36 182.144 120.86 184.074Z" fill="#FAFBFC"/>
<path d="M158.515 123.664C159.547 126.42 156.88 130.187 154.506 129.612C151.879 128.976 151.958 126.124 153.308 124.492C154.338 123.246 157.285 120.379 158.515 123.664Z" fill="#FAFBFC"/>
<path d="M187.939 155.12C186.781 156.365 185.601 156.758 184.695 156.777C183.567 156.8 182.501 156.083 182.215 155.33C181.611 153.74 182.518 152.411 183.612 151.301C184.937 149.958 186.558 149.536 187.915 150.755C188.92 151.657 189.513 153.427 187.939 155.12Z" fill="#FAFBFC"/>
<path d="M103.545 205.941C102.849 207.28 102.173 207.848 101.605 208.087C100.826 208.414 99.436 208.293 99.173 207.242C98.721 205.442 100.502 202.738 102.907 202.888C103.799 202.944 104.389 204.318 103.546 205.94L103.545 205.941Z" fill="#929293"/>
<path d="M371.19 358.753C371.209 359.662 371.391 361.593 369.883 361.663C369.089 361.7 368.021 360.948 367.368 360.168C368.312 359.034 369.725 358.398 371.19 358.753Z" fill="#1B1F28"/>
<path d="M2995.99 329.731H3007.19C3007.72 320.398 3008.12 310.265 3008.39 299.331C3008.65 288.398 3008.79 275.998 3008.79 262.131V129.731C3008.79 120.398 3007.32 114.265 3004.39 111.331C3001.72 108.398 2997.05 106.931 2990.39 106.931H2985.19C2984.12 103.998 2983.32 101.198 2982.79 98.5313C2982.52 95.8646 2982.39 93.1979 2982.39 90.5313C2982.39 82.5313 2986.92 78.5312 2995.99 78.5312H3058.79C3058.79 88.3979 3058.52 100.798 3057.99 115.731C3057.45 130.665 3057.19 145.731 3057.19 160.931V177.731C3064.39 171.865 3072.92 167.065 3082.79 163.331C3092.92 159.331 3104.12 157.331 3116.39 157.331C3135.32 157.331 3149.85 162.131 3159.99 171.731C3170.39 181.331 3175.59 197.998 3175.59 221.731V298.931C3175.59 307.731 3175.99 314.398 3176.79 318.931C3177.59 323.465 3179.05 326.398 3181.19 327.731C3183.32 329.065 3186.39 329.731 3190.39 329.731H3197.19C3197.99 332.398 3198.52 335.065 3198.79 337.731C3199.32 340.398 3199.59 342.798 3199.59 344.931C3199.59 352.931 3195.05 356.931 3185.99 356.931H3124.79C3125.05 350.265 3125.32 342.131 3125.59 332.531C3125.85 322.931 3126.12 313.065 3126.39 302.931C3126.92 292.798 3127.19 283.731 3127.19 275.731V251.731C3127.19 237.331 3126.12 225.865 3123.99 217.331C3121.85 208.531 3118.25 202.265 3113.19 198.531C3108.12 194.531 3100.92 192.531 3091.59 192.531C3080.65 192.531 3072.12 195.865 3065.99 202.531C3060.12 209.198 3057.19 220.665 3057.19 236.931V261.331C3057.19 272.265 3057.19 283.331 3057.19 294.531C3057.45 305.465 3057.85 317.198 3058.39 329.731H3079.19C3080.25 332.398 3080.92 335.065 3081.19 337.731C3081.72 340.398 3081.99 342.798 3081.99 344.931C3081.99 352.931 3077.59 356.931 3068.79 356.931H2985.19C2984.12 353.998 2983.32 351.331 2982.79 348.931C2982.52 346.265 2982.39 343.865 2982.39 341.731C2982.39 333.731 2986.92 329.731 2995.99 329.731Z" fill="white"/>
<path d="M2848.97 296.131V193.731H2820.57C2819.51 190.798 2818.57 187.998 2817.77 185.331C2817.24 182.664 2816.97 179.598 2816.97 176.131C2816.97 166.264 2821.77 161.331 2831.37 161.331H2848.97L2862.17 109.331L2876.17 110.531C2884.44 111.064 2890.04 113.064 2892.97 116.531C2895.91 119.731 2897.37 125.998 2897.37 135.331V161.331H2962.57C2963.64 163.998 2964.44 166.664 2964.97 169.331C2965.51 171.998 2965.77 175.064 2965.77 178.531C2965.77 188.664 2961.11 193.731 2951.77 193.731H2897.37V286.131C2897.37 299.998 2899.51 310.131 2903.77 316.531C2908.04 322.664 2914.31 325.731 2922.57 325.731C2927.91 325.731 2932.71 324.531 2936.97 322.131C2941.51 319.464 2945.37 315.864 2948.57 311.331C2953.37 312.398 2957.51 314.798 2960.97 318.531C2964.71 322.264 2966.57 326.531 2966.57 331.331C2966.57 338.798 2961.37 345.598 2950.97 351.731C2940.57 357.864 2926.97 360.931 2910.17 360.931C2888.84 360.931 2873.24 355.331 2863.37 344.131C2853.77 332.931 2848.97 316.931 2848.97 296.131Z" fill="white"/>
<path d="M2601.47 329.731H2613.07C2613.61 317.198 2613.87 305.464 2613.87 294.531C2614.14 283.331 2614.27 272.264 2614.27 261.331V212.531C2614.27 203.198 2612.94 197.064 2610.27 194.131C2607.61 191.198 2602.94 189.731 2596.27 189.731H2590.67C2589.87 186.798 2589.21 183.998 2588.67 181.331C2588.41 178.664 2588.27 175.998 2588.27 173.331C2588.27 165.331 2592.67 161.331 2601.47 161.331H2652.27C2652.81 164.531 2653.21 168.264 2653.47 172.531C2654.01 176.531 2654.27 180.398 2654.27 184.131C2663.87 175.864 2674.01 169.331 2684.67 164.531C2695.61 159.731 2708.14 157.331 2722.27 157.331C2741.21 157.331 2755.74 162.131 2765.87 171.731C2776.01 181.331 2781.07 197.998 2781.07 221.731V298.931C2781.07 307.731 2781.47 314.398 2782.27 318.931C2783.34 323.464 2784.94 326.398 2787.07 327.731C2789.21 329.064 2792.14 329.731 2795.87 329.731H2802.67C2803.74 332.398 2804.41 335.064 2804.67 337.731C2804.94 340.398 2805.07 342.798 2805.07 344.931C2805.07 352.931 2800.67 356.931 2791.87 356.931H2730.67C2730.94 350.264 2731.21 342.131 2731.47 332.531C2731.74 322.931 2732.01 313.064 2732.27 302.931C2732.54 292.798 2732.67 283.731 2732.67 275.731V251.731C2732.67 237.331 2731.61 225.864 2729.47 217.331C2727.61 208.531 2724.14 202.264 2719.07 198.531C2714.01 194.531 2706.67 192.531 2697.07 192.531C2686.14 192.531 2677.61 195.998 2671.47 202.931C2665.61 209.598 2662.67 221.198 2662.67 237.731V261.331C2662.67 272.264 2662.81 283.331 2663.07 294.531C2663.34 305.464 2663.61 317.198 2663.87 329.731H2685.47C2686.27 332.398 2686.81 335.064 2687.07 337.731C2687.61 340.398 2687.87 342.798 2687.87 344.931C2687.87 352.931 2683.34 356.931 2674.27 356.931H2590.67C2589.87 353.998 2589.21 351.331 2588.67 348.931C2588.41 346.264 2588.27 343.864 2588.27 341.731C2588.27 333.731 2592.67 329.731 2601.47 329.731Z" fill="white"/>
<path d="M2429.77 253.331C2429.77 281.864 2433.37 301.864 2440.57 313.331C2448.04 324.798 2458.44 330.531 2471.77 330.531C2478.97 330.531 2485.37 328.531 2490.97 324.531C2496.84 320.264 2501.51 313.331 2504.97 303.731C2508.44 294.131 2510.17 281.198 2510.17 264.931C2510.17 236.398 2506.57 216.398 2499.37 204.931C2492.17 193.464 2481.91 187.731 2468.57 187.731C2461.37 187.731 2454.84 189.864 2448.97 194.131C2443.37 198.131 2438.71 204.931 2434.97 214.531C2431.51 223.864 2429.77 236.798 2429.77 253.331ZM2377.77 265.331C2377.77 241.864 2381.64 222.131 2389.37 206.131C2397.37 190.131 2408.57 177.998 2422.97 169.731C2437.37 161.464 2454.17 157.331 2473.37 157.331C2503.24 157.331 2525.51 165.864 2540.17 182.931C2554.84 199.731 2562.17 223.064 2562.17 252.931C2562.17 276.398 2558.31 296.131 2550.57 312.131C2542.84 328.131 2531.77 340.264 2517.37 348.531C2503.24 356.798 2486.44 360.931 2466.97 360.931C2436.84 360.931 2414.44 352.531 2399.77 335.731C2385.11 318.664 2377.77 295.198 2377.77 265.331Z" fill="white"/>
<path d="M2022.18 329.731H2034.58C2035.64 321.731 2036.58 313.998 2037.38 306.531C2038.18 299.065 2038.98 290.798 2039.78 281.731C2040.58 272.398 2041.51 261.465 2042.58 248.931L2048.58 180.531C2049.38 172.265 2050.04 164.265 2050.58 156.531C2051.11 148.798 2051.51 141.598 2051.78 134.931C2052.31 128.265 2052.58 122.265 2052.58 116.931H2030.18C2028.58 111.331 2027.78 106.265 2027.78 101.731C2027.78 93.7312 2031.78 89.7312 2039.78 89.7312H2127.78L2180.58 291.331L2234.18 89.7312H2329.38C2330.98 95.3312 2331.78 100.398 2331.78 104.931C2331.78 112.931 2327.78 116.931 2319.78 116.931H2306.98C2307.24 123.331 2307.51 130.131 2307.78 137.331C2308.31 144.531 2308.84 151.865 2309.38 159.331C2310.18 166.531 2310.84 173.598 2311.38 180.531L2318.98 266.131C2319.78 276.265 2320.71 286.665 2321.78 297.331C2322.84 307.998 2324.18 318.798 2325.78 329.731H2347.78C2349.64 335.331 2350.58 340.398 2350.58 344.931C2350.58 352.931 2346.58 356.931 2338.58 356.931H2250.18C2249.38 353.998 2248.71 351.331 2248.18 348.931C2247.91 346.265 2247.78 343.865 2247.78 341.731C2247.78 337.465 2248.84 334.398 2250.98 332.531C2253.11 330.665 2257.64 329.731 2264.58 329.731H2272.18C2271.91 322.265 2271.51 314.131 2270.98 305.331C2270.71 296.265 2270.18 286.798 2269.38 276.931C2268.84 267.065 2268.04 257.065 2266.98 246.931L2258.58 142.531L2210.98 315.331C2209.11 323.065 2206.18 328.398 2202.18 331.331C2198.18 333.998 2192.44 335.331 2184.98 335.331H2146.58L2093.38 142.531L2084.98 254.531C2084.18 265.198 2083.38 274.798 2082.58 283.331C2082.04 291.865 2081.64 299.865 2081.38 307.331C2081.11 314.531 2080.98 321.998 2080.98 329.731H2102.58C2103.64 332.398 2104.31 335.065 2104.58 337.731C2105.11 340.398 2105.38 342.798 2105.38 344.931C2105.38 349.198 2104.31 352.265 2102.18 354.131C2100.04 355.998 2095.64 356.931 2088.98 356.931H2012.98C2011.11 351.331 2010.18 346.265 2010.18 341.731C2010.18 333.731 2014.18 329.731 2022.18 329.731Z" fill="white"/>
<path d="M1961.27 217.731L1958.07 213.331C1953 205.865 1947.27 199.865 1940.87 195.331C1934.74 190.798 1926.47 188.531 1916.07 188.531C1907.27 188.531 1899.27 190.798 1892.07 195.331C1884.87 199.598 1879.14 206.665 1874.87 216.531C1870.6 226.398 1868.47 239.865 1868.47 256.931C1868.47 275.865 1870.74 291.065 1875.27 302.531C1879.8 313.998 1886.07 322.265 1894.07 327.331C1902.34 332.398 1911.8 334.931 1922.47 334.931C1932.6 334.931 1941.27 332.931 1948.47 328.931C1955.94 324.665 1962.74 318.398 1968.87 310.131C1973.14 311.198 1976.74 313.198 1979.67 316.131C1982.6 318.798 1984.07 322.265 1984.07 326.531C1984.07 331.865 1981.27 337.198 1975.67 342.531C1970.07 347.598 1962.34 351.998 1952.47 355.731C1942.87 359.198 1931.94 360.931 1919.67 360.931C1891.67 360.931 1870.34 353.065 1855.67 337.331C1841 321.331 1833.67 297.598 1833.67 266.131C1833.67 242.931 1837.4 223.731 1844.87 208.531C1852.6 193.331 1863 182.131 1876.07 174.931C1889.14 167.465 1903.94 163.731 1920.47 163.731C1934.34 163.731 1945.94 165.598 1955.27 169.331C1964.87 173.065 1972.07 177.731 1976.87 183.331C1981.94 188.931 1984.47 194.398 1984.47 199.731C1984.47 207.465 1978.6 212.931 1966.87 216.131L1961.27 217.731Z" fill="#80FF84"/>
<path d="M1741.29 336.131H1751.69C1752.22 325.198 1752.49 313.998 1752.49 302.531C1752.76 290.798 1752.89 280.264 1752.89 270.931V210.131C1752.89 201.598 1751.82 196.131 1749.69 193.731C1747.56 191.064 1743.29 189.731 1736.89 189.731H1732.49C1731.69 187.331 1731.02 185.198 1730.49 183.331C1730.22 181.198 1730.09 179.198 1730.09 177.331C1730.09 170.931 1733.82 167.731 1741.29 167.731H1786.49C1786.49 177.598 1786.22 189.198 1785.69 202.531C1785.42 215.864 1785.29 228.931 1785.29 241.731V270.931C1785.29 280.264 1785.29 290.798 1785.29 302.531C1785.56 313.998 1785.82 325.198 1786.09 336.131H1805.29C1805.82 337.998 1806.22 339.864 1806.49 341.731C1807.02 343.598 1807.29 345.464 1807.29 347.331C1807.29 353.731 1803.69 356.931 1796.49 356.931H1732.49C1731.69 354.798 1731.02 352.931 1730.49 351.331C1730.22 349.464 1730.09 347.598 1730.09 345.731C1730.09 339.331 1733.82 336.131 1741.29 336.131ZM1765.69 128.931C1756.36 128.931 1749.96 127.331 1746.49 124.131C1743.02 120.664 1741.29 115.464 1741.29 108.531C1741.29 102.131 1743.16 97.1978 1746.89 93.7311C1750.89 89.9978 1757.16 88.1311 1765.69 88.1311C1774.76 88.1311 1781.02 89.8644 1784.49 93.3311C1788.22 96.5311 1790.09 101.598 1790.09 108.531C1790.09 114.931 1788.09 119.998 1784.09 123.731C1780.36 127.198 1774.22 128.931 1765.69 128.931Z" fill="#80FF84"/>
<path d="M1418.24 336.131H1428.64C1429.18 325.198 1429.44 313.998 1429.44 302.531C1429.71 290.798 1429.84 280.265 1429.84 270.931V210.131C1429.84 201.598 1428.78 196.131 1426.64 193.731C1424.51 191.065 1420.24 189.731 1413.84 189.731H1409.44C1408.64 187.331 1407.98 185.198 1407.44 183.331C1407.18 181.198 1407.04 179.198 1407.04 177.331C1407.04 170.931 1410.78 167.731 1418.24 167.731H1456.64C1457.18 170.398 1457.58 173.731 1457.84 177.731C1458.11 181.731 1458.24 185.465 1458.24 188.931C1467.04 180.665 1476.51 174.398 1486.64 170.131C1496.78 165.865 1507.58 163.731 1519.04 163.731C1531.04 163.731 1541.04 165.998 1549.04 170.531C1557.31 175.065 1563.44 181.865 1567.44 190.931C1576.24 181.598 1585.58 174.798 1595.44 170.531C1605.58 165.998 1616.78 163.731 1629.04 163.731C1647.71 163.731 1661.58 168.798 1670.64 178.931C1679.98 188.798 1684.64 205.065 1684.64 227.731V315.731C1684.64 321.598 1685.04 325.998 1685.84 328.931C1686.64 331.865 1687.98 333.865 1689.84 334.931C1691.71 335.731 1694.38 336.131 1697.84 336.131H1704.64C1705.71 337.998 1706.38 339.865 1706.64 341.731C1706.91 343.598 1707.04 345.465 1707.04 347.331C1707.04 353.731 1703.31 356.931 1695.84 356.931H1651.04C1651.31 350.265 1651.44 342.531 1651.44 333.731C1651.71 324.665 1651.84 315.331 1651.84 305.731C1652.11 296.131 1652.24 287.198 1652.24 278.931V248.931C1652.24 227.331 1649.31 212.131 1643.44 203.331C1637.84 194.265 1628.24 189.731 1614.64 189.731C1600.78 189.731 1590.38 194.131 1583.44 202.931C1576.78 211.465 1573.44 224.398 1573.44 241.731V270.931C1573.44 280.265 1573.44 290.798 1573.44 302.531C1573.71 313.998 1574.11 325.198 1574.64 336.131H1591.44C1592.24 337.998 1592.78 339.865 1593.04 341.731C1593.58 343.598 1593.84 345.465 1593.84 347.331C1593.84 353.731 1590.11 356.931 1582.64 356.931H1523.44C1522.64 354.798 1521.98 352.931 1521.44 351.331C1521.18 349.465 1521.04 347.598 1521.04 345.731C1521.04 339.331 1524.78 336.131 1532.24 336.131H1539.84C1540.38 325.465 1540.64 314.531 1540.64 303.331C1540.91 291.865 1541.04 281.598 1541.04 272.531V249.331C1541.04 227.731 1538.11 212.398 1532.24 203.331C1526.64 194.265 1517.18 189.731 1503.84 189.731C1489.71 189.731 1479.18 194.131 1472.24 202.931C1465.58 211.465 1462.24 224.398 1462.24 241.731V270.931C1462.24 280.265 1462.24 290.798 1462.24 302.531C1462.51 313.998 1462.78 325.198 1463.04 336.131H1479.04C1479.58 337.998 1479.98 339.865 1480.24 341.731C1480.78 343.598 1481.04 345.465 1481.04 347.331C1481.04 353.731 1477.44 356.931 1470.24 356.931H1409.44C1408.64 354.798 1407.98 352.931 1407.44 351.331C1407.18 349.465 1407.04 347.598 1407.04 345.731C1407.04 339.331 1410.78 336.131 1418.24 336.131Z" fill="#80FF84"/>
<path d="M1329.98 292.931V270.531H1296.78C1280.78 270.531 1269.71 273.465 1263.58 279.331C1257.71 284.931 1254.78 292.531 1254.78 302.131C1254.78 312.798 1257.58 321.065 1263.18 326.931C1268.78 332.531 1276.91 335.331 1287.58 335.331C1301.98 335.331 1312.65 331.598 1319.58 324.131C1326.51 316.398 1329.98 305.998 1329.98 292.931ZM1371.98 352.931L1341.98 356.931C1340.11 354.265 1338.38 351.065 1336.78 347.331C1335.45 343.331 1334.51 339.731 1333.98 336.531C1327.05 345.065 1318.91 351.331 1309.58 355.331C1300.51 359.065 1289.98 360.931 1277.98 360.931C1261.45 360.931 1247.71 356.265 1236.78 346.931C1226.11 337.598 1220.78 323.731 1220.78 305.331C1220.78 286.931 1227.18 272.665 1239.98 262.531C1253.05 252.398 1273.58 247.331 1301.58 247.331H1329.98V236.131C1329.98 222.798 1328.51 212.665 1325.58 205.731C1322.65 198.531 1317.45 193.598 1309.98 190.931C1302.78 187.998 1292.51 186.531 1279.18 186.531H1267.58L1261.58 208.131C1259.18 209.198 1256.25 210.131 1252.78 210.931C1249.58 211.731 1246.38 212.131 1243.18 212.131C1240.25 212.131 1237.31 211.065 1234.38 208.931C1231.71 206.531 1229.45 203.598 1227.58 200.131C1225.98 196.398 1225.18 192.665 1225.18 188.931C1225.18 185.731 1226.25 183.065 1228.38 180.931C1230.78 178.531 1234.78 176.131 1240.38 173.731C1247.31 171.065 1255.98 168.798 1266.38 166.931C1277.05 164.798 1288.38 163.731 1300.38 163.731C1322.25 163.731 1337.98 168.265 1347.58 177.331C1357.45 186.398 1362.38 202.531 1362.38 225.731V316.531C1362.38 323.198 1363.31 327.598 1365.18 329.731C1367.05 331.598 1370.38 332.531 1375.18 332.531H1382.78C1383.31 334.131 1383.71 335.731 1383.98 337.331C1384.51 338.931 1384.78 340.665 1384.78 342.531C1384.78 345.731 1383.85 348.131 1381.98 349.731C1380.11 351.331 1376.78 352.398 1371.98 352.931Z" fill="#80FF84"/>
<path d="M1128.74 336.131H1139.14C1139.68 326.531 1139.94 315.998 1139.94 304.531C1140.21 293.065 1140.34 281.998 1140.34 271.331V120.931C1140.34 112.398 1139.14 106.931 1136.74 104.531C1134.61 101.865 1130.48 100.531 1124.34 100.531H1119.94C1119.14 98.1313 1118.48 95.9979 1117.94 94.1313C1117.68 91.9979 1117.54 89.9979 1117.54 88.1312C1117.54 81.7313 1121.28 78.5312 1128.74 78.5312H1173.94C1173.94 88.3979 1173.68 100.398 1173.14 114.531C1172.88 128.665 1172.74 142.131 1172.74 154.931V270.931C1172.74 280.265 1172.74 290.798 1172.74 302.531C1173.01 313.998 1173.28 325.198 1173.54 336.131H1192.74C1193.28 337.998 1193.68 339.865 1193.94 341.731C1194.48 343.598 1194.74 345.465 1194.74 347.331C1194.74 353.731 1191.14 356.931 1183.94 356.931H1119.94C1119.14 354.798 1118.48 352.931 1117.94 351.331C1117.68 349.465 1117.54 347.598 1117.54 345.731C1117.54 339.331 1121.28 336.131 1128.74 336.131Z" fill="#80FF84"/>
<path d="M1097.49 301.731C1097.49 318.798 1091.09 332.931 1078.29 344.131C1065.49 355.331 1047.22 360.931 1023.49 360.931C1008.56 360.931 995.622 359.065 984.689 355.331C973.756 351.331 965.356 346.665 959.489 341.331C953.622 335.731 950.689 330.265 950.689 324.931C950.689 320.398 952.289 316.531 955.489 313.331C958.956 310.131 962.956 307.731 967.489 306.131C973.622 314.131 981.089 321.331 989.889 327.731C998.956 333.865 1010.56 336.931 1024.69 336.931C1038.02 336.931 1048.02 334.531 1054.69 329.731C1061.62 324.665 1065.09 317.865 1065.09 309.331C1065.09 300.531 1061.62 293.865 1054.69 289.331C1047.76 284.531 1038.02 280.398 1025.49 276.931L1008.29 272.131C990.689 267.331 977.622 260.665 969.089 252.131C960.556 243.598 956.289 232.531 956.289 218.931C956.289 207.998 959.089 198.398 964.689 190.131C970.289 181.865 978.156 175.465 988.289 170.931C998.689 166.131 1011.09 163.731 1025.49 163.731C1039.09 163.731 1050.56 165.598 1059.89 169.331C1069.49 172.798 1076.82 177.198 1081.89 182.531C1086.96 187.598 1089.49 192.665 1089.49 197.731C1089.49 201.998 1087.89 205.598 1084.69 208.531C1081.76 211.198 1077.89 213.065 1073.09 214.131L1068.29 215.331L1065.89 211.731C1060.82 204.798 1054.56 199.065 1047.09 194.531C1039.62 189.998 1030.56 187.731 1019.89 187.731C1010.29 187.731 1002.56 189.998 996.689 194.531C991.089 199.065 988.289 205.198 988.289 212.931C988.289 220.398 990.822 226.531 995.889 231.331C1001.22 235.865 1009.76 239.598 1021.49 242.531L1038.29 247.331C1059.36 252.665 1074.42 259.731 1083.49 268.531C1092.82 277.065 1097.49 288.131 1097.49 301.731Z" fill="#80FF84"/>
<path d="M850.442 336.131H862.442C862.709 324.398 862.842 312.931 862.842 301.731C863.109 290.265 863.242 279.465 863.242 269.331V177.331C863.242 167.198 863.109 156.531 862.842 145.331C862.842 133.865 862.709 122.265 862.442 110.531H842.442C840.842 106.265 840.042 102.531 840.042 99.3312C840.042 92.9312 843.509 89.7312 850.442 89.7312H919.642C920.975 93.9979 921.642 97.7312 921.642 100.931C921.642 107.331 918.175 110.531 911.242 110.531H899.642C899.109 122.265 898.709 133.865 898.442 145.331C898.442 156.531 898.442 167.198 898.442 177.331V269.331C898.442 279.465 898.442 290.265 898.442 301.731C898.709 312.931 899.109 324.398 899.642 336.131H919.642C920.975 340.398 921.642 344.131 921.642 347.331C921.642 353.731 918.175 356.931 911.242 356.931H842.442C840.842 352.665 840.042 348.931 840.042 345.731C840.042 339.331 843.509 336.131 850.442 336.131Z" fill="#80FF84"/>
</svg>
